<?xml version="1.0" encoding="UTF-8" standalone="no"?>
<svg
   id="Layer_1"
   data-name="Layer 1"
   viewBox="0 0 56.25 46.875"
   width="1200"
   height="700"
   version="1.1"
   sodipodi:docname="focused_extra.svg"
   inkscape:version="1.3.2 (091e20ef0f, 2023-11-25, custom)"
   xmlns:inkscape="http://www.inkscape.org/namespaces/inkscape"
   xmlns:sodipodi="http://sodipodi.sourceforge.net/DTD/sodipodi-0.dtd"
   xmlns="http://www.w3.org/2000/svg"
   xmlns:svg="http://www.w3.org/2000/svg">
  <defs
     id="defs1" />
  <sodipodi:namedview
     id="namedview1"
     pagecolor="#505050"
     bordercolor="#eeeeee"
     borderopacity="1"
     inkscape:showpageshadow="0"
     inkscape:pageopacity="0"
     inkscape:pagecheckerboard="0"
     inkscape:deskcolor="#505050"
     inkscape:zoom="1.1117597"
     inkscape:cx="580.61108"
     inkscape:cy="447.03905"
     inkscape:window-width="2560"
     inkscape:window-height="1418"
     inkscape:window-x="0"
     inkscape:window-y="582"
     inkscape:window-maximized="1"
     inkscape:current-layer="Layer_1" />
  <path
     d="m 35.100446,23.437499 c 0,0.771485 -0.625,1.39509 -1.395089,1.39509 h -4.185268 v 4.185268 c 0,0.771484 -0.625,1.395089 -1.39509,1.395089 -0.770089,0 -1.395089,-0.623605 -1.395089,-1.395089 v -4.185268 h -4.185268 c -0.770089,0 -1.395089,-0.623605 -1.395089,-1.39509 0,-0.771484 0.625,-1.395089 1.395089,-1.395089 h 4.185268 v -4.185268 c 0,-0.771484 0.625,-1.395089 1.395089,-1.395089 0.77009,0 1.39509,0.623605 1.39509,1.395089 v 4.185268 h 4.185268 c 0.770089,0 1.395089,0.623605 1.395089,1.395089 z m 9.765625,-9.765625 v 19.531251 c 0,3.846262 -3.129185,6.975447 -6.975447,6.975447 h -19.53125 c -3.846261,0 -6.975446,-3.129185 -6.975446,-6.975447 V 13.671874 c 0,-3.8462605 3.129185,-6.9754455 6.975446,-6.9754455 h 19.53125 c 3.846262,0 6.975447,3.129185 6.975447,6.9754455 z m -2.790179,0 c 0,-2.307477 -1.87779,-4.1852665 -4.185268,-4.1852665 h -19.53125 c -2.307477,0 -4.185267,1.8777895 -4.185267,4.1852665 v 19.531251 c 0,2.307478 1.87779,4.185268 4.185267,4.185268 h 19.53125 c 2.307478,0 4.185268,-1.87779 4.185268,-4.185268 z"
     id="path1"
     style="fill:#74c7ec;fill-opacity:1;stroke-width:1.39509" />
</svg>
