<?xml version="1.0" encoding="UTF-8" standalone="no"?>
<svg
   id="Layer_1"
   data-name="Layer 1"
   viewBox="0 0 56.25 46.875"
   width="1200"
   height="700"
   version="1.1"
   sodipodi:docname="unfocused_docs.svg"
   inkscape:version="1.3.2 (091e20ef0f, 2023-11-25, custom)"
   xmlns:inkscape="http://www.inkscape.org/namespaces/inkscape"
   xmlns:sodipodi="http://sodipodi.sourceforge.net/DTD/sodipodi-0.dtd"
   xmlns="http://www.w3.org/2000/svg"
   xmlns:svg="http://www.w3.org/2000/svg">
  <defs
     id="defs1" />
  <sodipodi:namedview
     id="namedview1"
     pagecolor="#505050"
     bordercolor="#eeeeee"
     borderopacity="1"
     inkscape:showpageshadow="0"
     inkscape:pageopacity="0"
     inkscape:pagecheckerboard="0"
     inkscape:deskcolor="#505050"
     inkscape:zoom="0.78613281"
     inkscape:cx="598.49938"
     inkscape:cy="337.09317"
     inkscape:window-width="2560"
     inkscape:window-height="1418"
     inkscape:window-x="0"
     inkscape:window-y="582"
     inkscape:window-maximized="1"
     inkscape:current-layer="Layer_1" />
  <path
     d="m 37.890624,6.6964285 h -19.53125 c -3.850446,0 -6.975446,3.125 -6.975446,6.9754455 v 19.531251 c 0,3.850447 3.125,6.975447 6.975446,6.975447 h 19.53125 c 3.850447,0 6.975447,-3.125 6.975447,-6.975447 v -19.53125 c 0,-3.8504465 -3.125,-6.9754465 -6.975447,-6.9754465 z m 4.185268,26.5066965 c 0,2.301898 -1.88337,4.185268 -4.185268,4.185268 h -19.53125 c -2.301897,0 -4.185267,-1.88337 -4.185267,-4.185268 v -19.53125 c 0,-2.301897 1.88337,-4.1852675 4.185267,-4.1852675 h 19.53125 c 2.301898,0 4.185268,1.8833705 4.185268,4.1852675 z M 18.359374,20.647321 c 0,-0.767299 0.627791,-1.395089 1.39509,-1.395089 h 12.555803 c 0.767299,0 1.39509,0.62779 1.39509,1.395089 0,0.767299 -0.627791,1.395089 -1.39509,1.395089 H 19.754464 c -0.767299,0 -1.39509,-0.62779 -1.39509,-1.395089 z m 0,-5.580357 c 0,-0.767299 0.627791,-1.39509 1.39509,-1.39509 H 28.125 c 0.767299,0 1.39509,0.627791 1.39509,1.39509 0,0.767299 -0.62779,1.395089 -1.39509,1.395089 h -8.370536 c -0.767299,0 -1.395089,-0.62779 -1.39509,-1.395089 z m 19.531251,11.160714 c 0,0.767299 -0.62779,1.395089 -1.395089,1.395089 H 19.754464 c -0.767299,0 -1.39509,-0.62779 -1.39509,-1.395089 0,-0.767299 0.627791,-1.395089 1.39509,-1.395089 h 16.741072 c 0.767299,0 1.395089,0.62779 1.395089,1.395089 z m -12.555803,5.580357 c 0,0.767299 -0.62779,1.395089 -1.395089,1.395089 h -4.185268 c -0.767299,0 -1.39509,-0.62779 -1.39509,-1.395089 0,-0.767299 0.627791,-1.395089 1.39509,-1.395089 h 4.185268 c 0.767299,0 1.395089,0.62779 1.395089,1.395089 z"
     id="path1"
     style="fill:#616e88;fill-opacity:1;stroke-width:1.39509" />
</svg>
