<?xml version="1.0" encoding="UTF-8" standalone="no"?>
<svg
   id="Layer_1"
   data-name="Layer 1"
   viewBox="0 0 56.25 46.875"
   width="1200"
   height="700"
   version="1.1"
   sodipodi:docname="unfocused_home.svg"
   inkscape:version="1.3.2 (091e20ef0f, 2023-11-25, custom)"
   xmlns:inkscape="http://www.inkscape.org/namespaces/inkscape"
   xmlns:sodipodi="http://sodipodi.sourceforge.net/DTD/sodipodi-0.dtd"
   xmlns="http://www.w3.org/2000/svg"
   xmlns:svg="http://www.w3.org/2000/svg">
  <defs
     id="defs1" />
  <sodipodi:namedview
     id="namedview1"
     pagecolor="#505050"
     bordercolor="#eeeeee"
     borderopacity="1"
     inkscape:showpageshadow="0"
     inkscape:pageopacity="0"
     inkscape:pagecheckerboard="0"
     inkscape:deskcolor="#505050"
     inkscape:zoom="1.1117597"
     inkscape:cx="647.17223"
     inkscape:cy="364.28735"
     inkscape:window-width="2560"
     inkscape:window-height="1418"
     inkscape:window-x="0"
     inkscape:window-y="582"
     inkscape:window-maximized="1"
     inkscape:current-layer="Layer_1" />
  <path
     d="m 30.915178,31.811174 h -5.580357 c -1.538784,0 -2.790179,-1.251395 -2.790179,-2.790179 v -5.580357 c 0,-1.538783 1.251395,-2.790178 2.790179,-2.790178 h 5.580357 c 1.538783,0 2.790179,1.251395 2.790179,2.790178 v 5.580357 c 0,1.538784 -1.251396,2.790179 -2.790179,2.790179 z m -5.580357,-8.370536 v 5.580357 h 5.583147 l -0.0028,-5.580357 z M 37.890624,40.18171 h -19.53125 c -3.846261,0 -6.975446,-3.129186 -6.975446,-6.975447 V 20.265415 c 0,-2.322824 1.149554,-4.485212 3.074777,-5.782645 l 9.76423,-6.5904015 c 2.370256,-1.598772 5.433872,-1.598772 7.804129,0 l 9.765625,6.5904015 c 1.923828,1.297434 3.073382,3.458426 3.073382,5.782645 v 12.940848 c 0,3.846261 -3.129185,6.975447 -6.975447,6.975447 z M 28.124999,9.4855605 c -0.814732,0 -1.629464,0.239956 -2.340959,0.7212605 l -9.765625,6.589007 c -1.155134,0.77846 -1.844308,2.074498 -1.844308,3.468192 v 12.940848 c 0,2.307478 1.87779,4.185268 4.185267,4.185268 h 19.53125 c 2.307478,0 4.185268,-1.87779 4.185268,-4.185268 V 20.265415 c 0,-1.393694 -0.689174,-2.691127 -1.842913,-3.468192 l -9.76702,-6.590402 C 29.754464,9.7255165 28.939732,9.4855605 28.124999,9.4855605 Z"
     id="path1"
     style="fill:#88c0d0;fill-opacity:1;stroke-width:1.39509" />
</svg>
