<?xml version="1.0" encoding="UTF-8" standalone="no"?>
<svg
   id="Layer_1"
   data-name="Layer 1"
   viewBox="0 0 1200 1000"
   version="1.1"
   sodipodi:docname="focused_edit.svg"
   width="1200"
   height="700"
   inkscape:version="1.3.2 (091e20ef0f, 2023-11-25, custom)"
   xmlns:inkscape="http://www.inkscape.org/namespaces/inkscape"
   xmlns:sodipodi="http://sodipodi.sourceforge.net/DTD/sodipodi-0.dtd"
   xmlns="http://www.w3.org/2000/svg"
   xmlns:svg="http://www.w3.org/2000/svg">
  <defs
     id="defs1" />
  <sodipodi:namedview
     id="namedview1"
     pagecolor="#505050"
     bordercolor="#eeeeee"
     borderopacity="1"
     inkscape:showpageshadow="0"
     inkscape:pageopacity="0"
     inkscape:pagecheckerboard="0"
     inkscape:deskcolor="#505050"
     inkscape:zoom="1.0481771"
     inkscape:cx="698.83229"
     inkscape:cy="360.62608"
     inkscape:window-width="2560"
     inkscape:window-height="1418"
     inkscape:window-x="0"
     inkscape:window-y="582"
     inkscape:window-maximized="1"
     inkscape:current-layer="Layer_1" />
  <path
     d="m 688.92168,521.62394 c 4.69819,52.97322 -36.89974,97.43564 -88.92379,97.43564 h -118.3871 c -20.56402,0 -35.1474,-19.82061 -29.01438,-39.4323 14.93894,-47.88457 57.61616,-123.95212 126.18415,-137.13596 52.2323,-10.05918 105.4112,26.15931 110.11381,79.13288 z M 927.36239,410.73672 c -16.4563,0 -29.75724,13.30279 -29.75724,29.76039 v 148.80205 c 0,49.22354 -40.05514,89.28123 -89.2812,89.28123 H 391.6782 c -49.22295,0 -89.28123,-40.05769 -89.28123,-89.28123 V 351.21591 c 0,-49.22358 40.0551,-89.28125 89.28123,-89.28125 h 238.08328 c 16.45632,0 29.75724,-13.30285 29.75724,-29.76043 0,-16.45759 -13.30092,-29.76042 -29.75724,-29.76042 H 391.6782 c -82.05239,0 -148.80523,66.75261 -148.80523,148.8021 v 238.08325 c 0,82.04945 66.75284,148.80207 148.80205,148.80207 h 178.56246 v 59.52082 h -89.28123 c -16.42458,0 -29.75724,13.30282 -29.75724,29.76039 0,16.45759 13.33266,29.76042 29.75724,29.76042 h 238.08328 c 16.45633,0 29.75725,-13.30283 29.75725,-29.76042 0,-16.45757 -13.30092,-29.76039 -29.75725,-29.76039 h -89.28122 v -59.52082 h 178.56245 c 82.04922,0 148.80203,-66.75262 148.80203,-148.80207 V 440.49711 c 0,-16.4576 -13.3009,-29.76039 -29.7572,-29.76039 z m -280.16431,-9.3748 c 0.20799,0.0891 0.44629,0.17828 0.63498,0.29804 11.42801,5.00293 24.70353,1.75847 33.00152,-7.559 L 848.71316,211.66961 c 10.35501,-11.57656 28.15096,-12.55873 39.69959,-2.20307 0.38717,0.35711 0.76216,0.68569 1.1428,1.07298 10.98354,10.95183 10.98354,28.71857 0.0297,39.70022 0,0 0,0 -0.0297,0.0297 L 715.64663,419.48656 c -9.85346,9.85098 -11.25024,25.11749 -3.68235,36.81343 0.11881,0.17828 0.23772,0.35717 0.32775,0.50573 10.08838,15.74334 32.08094,18.03464 45.29295,4.81877 L 931.50449,292.43672 c 34.1634,-34.22433 34.1634,-89.66816 0,-123.89266 -34.19511,-34.22432 -89.63802,-34.25417 -123.86236,-0.0598 -1.14281,1.16184 -171.44977,186.18114 -171.44977,186.18114 -13.54218,15.20749 -7.67581,38.62916 11.00897,46.69415 z"
     id="path1-7"
     style="fill:#2e3440;fill-opacity:1;stroke-width:29.7604" />
</svg>
