<?xml version="1.0" encoding="UTF-8" standalone="no"?>
<svg
   id="Layer_1"
   data-name="Layer 1"
   viewBox="0 0 56.25 46.875"
   width="1200"
   height="700"
   version="1.1"
   sodipodi:docname="unfocused_chat.svg"
   inkscape:version="1.3.2 (091e20ef0f, 2023-11-25, custom)"
   xmlns:inkscape="http://www.inkscape.org/namespaces/inkscape"
   xmlns:sodipodi="http://sodipodi.sourceforge.net/DTD/sodipodi-0.dtd"
   xmlns="http://www.w3.org/2000/svg"
   xmlns:svg="http://www.w3.org/2000/svg">
  <defs
     id="defs1" />
  <sodipodi:namedview
     id="namedview1"
     pagecolor="#505050"
     bordercolor="#eeeeee"
     borderopacity="1"
     inkscape:showpageshadow="0"
     inkscape:pageopacity="0"
     inkscape:pagecheckerboard="0"
     inkscape:deskcolor="#505050"
     inkscape:zoom="0.78613281"
     inkscape:cx="531.08075"
     inkscape:cy="365.07826"
     inkscape:window-width="2560"
     inkscape:window-height="1418"
     inkscape:window-x="0"
     inkscape:window-y="582"
     inkscape:window-maximized="1"
     inkscape:current-layer="Layer_1" />
  <path
     d="m 28.136859,39.945582 c -0.66409,0 -1.332366,-0.234386 -1.865312,-0.707341 l -5.229012,-4.40448 h -4.078016 c -3.077695,0 -5.58059,-2.502894 -5.58059,-5.58059 V 12.510008 c -0.0014,-3.0776955 2.501499,-5.5805895 5.579195,-5.5805895 h 22.322358 c 3.077695,0 5.580589,2.502894 5.580589,5.5805895 v 16.741768 c 0,3.077695 -2.502894,5.58059 -5.580589,5.58059 h -3.97896 l -5.367133,4.436569 c -0.505043,0.449237 -1.150996,0.675251 -1.803925,0.675251 z M 16.963124,9.7197135 c -1.538848,0 -2.790295,1.2514465 -2.790295,2.7902945 v 16.741768 c 0,1.538848 1.251447,2.790295 2.790295,2.790295 h 4.588639 c 0.329255,0 0.647349,0.115797 0.89987,0.32786 l 5.646162,4.757452 5.817765,-4.765823 c 0.251126,-0.206481 0.565034,-0.319488 0.890104,-0.319488 h 4.481213 c 1.538848,0 2.790295,-1.251447 2.790295,-2.790295 V 12.510008 c 0,-1.538848 -1.251447,-2.7902945 -2.790295,-2.7902945 z"
     id="path1"
     style="fill:#A6ACCD;fill-opacity:1;stroke-width:1.39515" />
</svg>
